<svg width="64" height="64" viewBox="0 0 64 64" fill="none" xmlns="http://www.w3.org/2000/svg">
<circle cx="32" cy="32" r="31" stroke="#F9A51A" stroke-width="2"/>
<g clip-path="url(#clip0_681_157)">
<path d="M50.3103 12.7577C50.1031 12.6537 49.871 12.6095 49.64 12.6298C49.4091 12.6502 49.1884 12.7344 49.0025 12.873L41.4572 18.5027C41.4098 18.4909 41.3613 18.4847 41.3125 18.4843C41.3084 18.4843 41.305 18.4852 41.3009 18.4855L34.6381 13.5143C34.4222 13.3532 34.16 13.2661 33.8906 13.2661C33.6212 13.2661 33.359 13.3532 33.1431 13.5143L19.6719 23.5652L12.9975 18.5855C12.8117 18.4468 12.5909 18.3626 12.3599 18.3422C12.1289 18.3218 11.8969 18.3661 11.6896 18.47C11.4823 18.574 11.3081 18.7336 11.1863 18.9309C11.0645 19.1282 11 19.3555 11 19.5874V44.5874C11 44.782 11.0454 44.9739 11.1327 45.1478C11.2199 45.3217 11.3465 45.4729 11.5025 45.5893L18.9244 51.1268C19.1403 51.2879 19.4025 51.3749 19.6719 51.3749C19.9413 51.3749 20.2035 51.2879 20.4194 51.1268L33.8906 41.0755L40.6431 46.1136C40.859 46.2747 41.1212 46.3618 41.3906 46.3618C41.66 46.3618 41.9222 46.2747 42.1381 46.1136L50.4975 39.8768C50.6535 39.7604 50.7801 39.6092 50.8673 39.4353C50.9546 39.2614 51 39.0695 51 38.8749V13.8749C51 13.643 50.9354 13.4157 50.8136 13.2185C50.6918 13.0212 50.5176 12.8616 50.3103 12.7577ZM12.25 19.5874L19.125 24.7168V30.9061C19.125 31.0217 19.157 31.1349 19.2174 31.2334C19.2779 31.3318 19.3644 31.4115 19.4675 31.4638C19.5705 31.516 19.686 31.5386 19.8012 31.5292C19.9163 31.5197 20.0265 31.4785 20.1197 31.4102L25.6875 27.3271V33.3786L19.4081 38.0155L12.2687 33.553C12.2625 33.5496 12.2563 33.5474 12.25 33.5439V19.5874ZM19.3713 43.2218C19.2947 43.28 19.2327 43.3552 19.19 43.4414C19.1473 43.5276 19.125 43.6224 19.125 43.7186V49.7168L12.25 44.5874V35.0155L19.1062 39.3008C19.2126 39.3672 19.3365 39.4001 19.4617 39.3952C19.587 39.3903 19.7079 39.3478 19.8088 39.2733L25.6875 34.9321V38.4093L19.3713 43.2218ZM33.1875 40.0405L20.375 49.6002V44.0283L26.6913 39.2158C26.7678 39.1575 26.8299 39.0823 26.8726 38.996C26.9153 38.9098 26.9375 38.8149 26.9375 38.7186V26.4102L33.1875 21.8271V40.0405ZM49.75 38.8749L41.9375 44.7039V41.453L49.75 35.5936V38.8749ZM49.75 16.7611L42.3303 22.198C42.8723 22.2589 43.4041 22.3902 43.9122 22.5886L49.75 18.3108V29.0246L47.2575 30.8296C46.8977 31.6752 46.4787 32.4943 46.0034 33.2808L49.75 30.568V34.0311L40.9375 40.6405C40.8598 40.6987 40.7968 40.7742 40.7534 40.861C40.71 40.9478 40.6875 41.0435 40.6875 41.1405V44.5874L34.4375 39.9243V25.9055L35.6325 26.573C35.7524 26.1698 35.914 25.7802 36.1147 25.4105L34.5341 24.5271C34.5031 24.5104 34.4708 24.4964 34.4375 24.4852V20.5936C34.4375 20.4781 34.4055 20.3649 34.3451 20.2664C34.2846 20.168 34.1981 20.0882 34.095 20.036C33.992 19.9838 33.8765 19.9612 33.7613 19.9706C33.6462 19.9801 33.536 20.0212 33.4428 20.0896L20.375 29.6727V24.6002L33.8906 14.5158L40.6875 19.5874V22.233C40.9977 22.1842 41.311 22.1585 41.625 22.1561C41.7306 22.1561 41.8331 22.1668 41.9375 22.1718V19.7039L49.75 13.8749V16.7611Z" fill="#F9A51A"/>
<path d="M36.625 28.3087C36.625 30.5697 39.6891 34.7943 40.6281 36.0356C40.7447 36.1897 40.8953 36.3146 41.0683 36.4006C41.2413 36.4867 41.4318 36.5314 41.625 36.5314C41.8182 36.5314 42.0087 36.4867 42.1817 36.4006C42.3547 36.3146 42.5053 36.1897 42.6219 36.0356C43.5609 34.7943 46.625 30.5697 46.625 28.3084C46.5996 26.9991 46.0617 25.752 45.1268 24.835C44.1919 23.918 42.9346 23.4043 41.625 23.4043C40.3154 23.4043 39.0581 23.918 38.1232 24.835C37.1883 25.752 36.6504 26.9994 36.625 28.3087ZM43.5 28.4062C43.5 28.7771 43.39 29.1396 43.184 29.4479C42.978 29.7563 42.6851 29.9966 42.3425 30.1385C41.9999 30.2804 41.6229 30.3175 41.2592 30.2452C40.8955 30.1728 40.5614 29.9943 40.2992 29.732C40.037 29.4698 39.8584 29.1357 39.786 28.772C39.7137 28.4083 39.7508 28.0313 39.8927 27.6887C40.0346 27.3461 40.275 27.0532 40.5833 26.8472C40.8916 26.6412 41.2542 26.5312 41.625 26.5312C42.1221 26.5318 42.5987 26.7295 42.9502 27.081C43.3017 27.4325 43.4994 27.9091 43.5 28.4062Z" fill="#F9A51A"/>
</g>
<defs>
<clipPath id="clip0_681_157">
<rect width="40" height="40" fill="white" transform="translate(11 12)"/>
</clipPath>
</defs>
</svg>
