<svg width="22" height="36" viewBox="0 0 22 36" fill="none" xmlns="http://www.w3.org/2000/svg">
<path d="M3.91286 35.1931C3.30221 35.1944 2.70492 35.015 2.19681 34.6777C1.68869 34.3403 1.29267 33.8602 1.059 33.2982C0.825329 32.7363 0.764547 32.1179 0.88437 31.5215C1.00419 30.9251 1.29922 30.3776 1.732 29.9485L13.7283 17.9999L1.732 6.05127C1.4456 5.76601 1.21842 5.42737 1.06342 5.05466C0.908428 4.68195 0.828653 4.28249 0.828653 3.87908C0.828653 3.47566 0.908428 3.0762 1.06342 2.70349C1.21842 2.33079 1.4456 1.99214 1.732 1.70688C2.01839 1.42162 2.35839 1.19535 2.73259 1.04097C3.10678 0.886587 3.50784 0.807129 3.91286 0.807129C4.31789 0.807129 4.71895 0.886587 5.09314 1.04097C5.46733 1.19535 5.80734 1.42162 6.09373 1.70688L20.2709 15.8277C20.5576 16.1128 20.7851 16.4514 20.9403 16.8241C21.0955 17.1968 21.1753 17.5964 21.1753 17.9999C21.1753 18.4034 21.0955 18.8029 20.9403 19.1757C20.7851 19.5484 20.5576 19.887 20.2709 20.1721L6.09373 34.2929C5.80766 34.5786 5.46773 34.8052 5.09347 34.9597C4.71921 35.1142 4.31799 35.1935 3.91286 35.1931Z" fill="white"/>
</svg>
