<svg width="64" height="64" viewBox="0 0 64 64" fill="none" xmlns="http://www.w3.org/2000/svg">
<circle cx="32" cy="32" r="31" stroke="#F9A51A" stroke-width="2"/>
<g clip-path="url(#clip0_627_193)">
<path d="M45.7494 34.5012H33.25C33.1679 34.5013 33.0866 34.4852 33.0108 34.4538C32.9349 34.4224 32.866 34.3763 32.808 34.3183C32.7499 34.2603 32.7039 34.1913 32.6725 34.1155C32.6411 34.0396 32.625 33.9583 32.625 33.8762V20.1269C32.625 19.9611 32.6908 19.8021 32.8081 19.6849C32.9253 19.5677 33.0842 19.5019 33.25 19.5019C33.4158 19.5019 33.5747 19.5677 33.6919 19.6849C33.8092 19.8021 33.875 19.9611 33.875 20.1269V33.2512H45.1244V20.1269C45.1244 19.9611 45.1902 19.8021 45.3074 19.6849C45.4246 19.5677 45.5836 19.5019 45.7494 19.5019C45.9151 19.5019 46.0741 19.5677 46.1913 19.6849C46.3085 19.8021 46.3744 19.9611 46.3744 20.1269V33.8762C46.3744 33.9583 46.3583 34.0396 46.3269 34.1155C46.2955 34.1913 46.2495 34.2603 46.1914 34.3183C46.1334 34.3763 46.0645 34.4224 45.9886 34.4538C45.9128 34.4852 45.8315 34.5013 45.7494 34.5012ZM42.6244 15.7518C42.5423 15.7519 42.461 15.7357 42.3851 15.7044C42.3093 15.673 42.2404 15.6269 42.1823 15.5689C42.1243 15.5108 42.0782 15.4419 42.0469 15.3661C42.0155 15.2902 41.9993 15.2089 41.9994 15.1268V12.625C41.9994 12.4592 42.0652 12.3003 42.1824 12.1831C42.2996 12.0658 42.4586 12 42.6244 12C42.7901 12 42.9491 12.0658 43.0663 12.1831C43.1835 12.3003 43.2494 12.4592 43.2494 12.625V15.1268C43.2494 15.2089 43.2333 15.2902 43.2019 15.3661C43.1705 15.4419 43.1245 15.5108 43.0664 15.5689C43.0084 15.6269 42.9395 15.673 42.8636 15.7044C42.7878 15.7357 42.7065 15.7519 42.6244 15.7518Z" fill="#F9A51A"/>
<path d="M42.6244 13.25H36.375C36.2092 13.25 36.0503 13.1842 35.9331 13.0669C35.8158 12.9497 35.75 12.7908 35.75 12.625C35.75 12.4592 35.8158 12.3003 35.9331 12.1831C36.0503 12.0658 36.2092 12 36.375 12H42.6244C42.7901 12 42.9491 12.0658 43.0663 12.1831C43.1835 12.3003 43.2494 12.4592 43.2494 12.625C43.2494 12.7908 43.1835 12.9497 43.0663 13.0669C42.9491 13.1842 42.7901 13.25 42.6244 13.25Z" fill="#F9A51A"/>
<path d="M36.375 15.7518C36.2929 15.7519 36.2116 15.7357 36.1358 15.7044C36.0599 15.673 35.991 15.6269 35.933 15.5689C35.8749 15.5108 35.8289 15.4419 35.7975 15.3661C35.7661 15.2902 35.75 15.2089 35.75 15.1268V12.625C35.75 12.4592 35.8158 12.3003 35.9331 12.1831C36.0503 12.0658 36.2092 12 36.375 12C36.5408 12 36.6997 12.0658 36.8169 12.1831C36.9342 12.3003 37 12.4592 37 12.625V15.1268C37 15.2089 36.9839 15.2902 36.9525 15.3661C36.9211 15.4419 36.8751 15.5108 36.817 15.5689C36.759 15.6269 36.6901 15.673 36.6142 15.7044C36.5384 15.7357 36.4571 15.7519 36.375 15.7518ZM45.7494 15.7518H42.6244C42.4586 15.7518 42.2996 15.686 42.1824 15.5688C42.0652 15.4516 41.9994 15.2926 41.9994 15.1268C41.9994 14.9611 42.0652 14.8021 42.1824 14.6849C42.2996 14.5677 42.4586 14.5018 42.6244 14.5018H45.7494C45.9151 14.5018 46.0741 14.5677 46.1913 14.6849C46.3085 14.8021 46.3744 14.9611 46.3744 15.1268C46.3744 15.2926 46.3085 15.4516 46.1913 15.5688C46.0741 15.686 45.9151 15.7518 45.7494 15.7518Z" fill="#F9A51A"/>
<path d="M42.6244 15.7518H33.25C33.0842 15.7518 32.9253 15.686 32.8081 15.5688C32.6908 15.4516 32.625 15.2926 32.625 15.1268C32.625 14.9611 32.6908 14.8021 32.8081 14.6849C32.9253 14.5677 33.0842 14.5018 33.25 14.5018H42.6244C42.7901 14.5018 42.9491 14.5677 43.0663 14.6849C43.1835 14.8021 43.2494 14.9611 43.2494 15.1268C43.2494 15.2926 43.1835 15.4516 43.0663 15.5688C42.9491 15.686 42.7901 15.7518 42.6244 15.7518Z" fill="#F9A51A"/>
<path d="M30.125 18.8756C30.0429 18.8757 29.9616 18.8595 29.8858 18.8281C29.8099 18.7967 29.741 18.7507 29.683 18.6927C29.6249 18.6346 29.5789 18.5657 29.5475 18.4898C29.5161 18.414 29.5 18.3327 29.5 18.2506C29.5011 17.2564 29.8965 16.3032 30.5995 15.6002C31.3026 14.8971 32.2558 14.5017 33.25 14.5006C33.4158 14.5006 33.5747 14.5665 33.6919 14.6837C33.8092 14.8009 33.875 14.9599 33.875 15.1256C33.875 15.2914 33.8092 15.4503 33.6919 15.5676C33.5747 15.6848 33.4158 15.7506 33.25 15.7506C32.5872 15.7513 31.9517 16.0149 31.483 16.4836C31.0143 16.9523 30.7507 17.5878 30.75 18.2506C30.75 18.3327 30.7339 18.414 30.7025 18.4898C30.6711 18.5657 30.6251 18.6346 30.567 18.6927C30.509 18.7507 30.4401 18.7967 30.3642 18.8281C30.2884 18.8595 30.2071 18.8757 30.125 18.8756Z" fill="#F9A51A"/>
<path d="M30.125 31.3768C30.0429 31.3769 29.9616 31.3607 29.8858 31.3293C29.8099 31.2979 29.741 31.2519 29.683 31.1939C29.6249 31.1358 29.5789 31.0669 29.5475 30.991C29.5161 30.9152 29.5 30.8339 29.5 30.7518V18.2506C29.5 18.0849 29.5658 17.9259 29.6831 17.8087C29.8003 17.6915 29.9592 17.6256 30.125 17.6256C30.2908 17.6256 30.4497 17.6915 30.5669 17.8087C30.6842 17.9259 30.75 18.0849 30.75 18.2506V30.7519C30.75 30.8339 30.7339 30.9152 30.7025 30.9911C30.6711 31.0669 30.6251 31.1358 30.567 31.1939C30.509 31.2519 30.4401 31.298 30.3642 31.3293C30.2884 31.3607 30.2071 31.3769 30.125 31.3768Z" fill="#F9A51A"/>
<path d="M33.25 31.3768H30.125C29.9592 31.3768 29.8003 31.311 29.6831 31.1938C29.5658 31.0765 29.5 30.9176 29.5 30.7518C29.5 30.5861 29.5658 30.4271 29.6831 30.3099C29.8003 30.1927 29.9592 30.1268 30.125 30.1268H33.25C33.4158 30.1268 33.5747 30.1927 33.6919 30.3099C33.8092 30.4271 33.875 30.5861 33.875 30.7518C33.875 30.9176 33.8092 31.0765 33.6919 31.1938C33.5747 31.311 33.4158 31.3768 33.25 31.3768ZM48.875 18.8756C48.7929 18.8757 48.7116 18.8595 48.6358 18.8281C48.5599 18.7967 48.491 18.7507 48.433 18.6927C48.3749 18.6346 48.3289 18.5657 48.2975 18.4898C48.2661 18.414 48.25 18.3327 48.25 18.2506C48.2493 17.5878 47.9857 16.9523 47.517 16.4836C47.0483 16.0149 46.4128 15.7513 45.75 15.7506C45.5842 15.7506 45.4253 15.6848 45.3081 15.5676C45.1908 15.4503 45.125 15.2914 45.125 15.1256C45.125 14.9598 45.1908 14.8009 45.3081 14.6837C45.4253 14.5665 45.5842 14.5006 45.75 14.5006C46.7442 14.5017 47.6974 14.8971 48.4005 15.6002C49.1035 16.3032 49.4989 17.2564 49.5 18.2506C49.5 18.3327 49.4839 18.414 49.4525 18.4898C49.4211 18.5657 49.3751 18.6346 49.317 18.6927C49.259 18.7507 49.1901 18.7967 49.1142 18.8281C49.0384 18.8595 48.9571 18.8757 48.875 18.8756Z" fill="#F9A51A"/>
<path d="M48.875 31.3768C48.7929 31.3769 48.7116 31.3607 48.6358 31.3293C48.5599 31.2979 48.491 31.2519 48.433 31.1939C48.3749 31.1358 48.3289 31.0669 48.2975 30.991C48.2661 30.9152 48.25 30.8339 48.25 30.7518V18.2506C48.25 18.0849 48.3158 17.9259 48.4331 17.8087C48.5503 17.6915 48.7092 17.6256 48.875 17.6256C49.0408 17.6256 49.1997 17.6915 49.3169 17.8087C49.4342 17.9259 49.5 18.0849 49.5 18.2506V30.7519C49.5 30.8339 49.4839 30.9152 49.4525 30.9911C49.4211 31.0669 49.3751 31.1358 49.317 31.1939C49.259 31.2519 49.1901 31.298 49.1142 31.3293C49.0384 31.3607 48.9571 31.3769 48.875 31.3768Z" fill="#F9A51A"/>
<path d="M48.875 31.3768H45.75C45.5842 31.3768 45.4253 31.311 45.3081 31.1938C45.1908 31.0766 45.125 30.9176 45.125 30.7518C45.125 30.5861 45.1908 30.4271 45.3081 30.3099C45.4253 30.1927 45.5842 30.1268 45.75 30.1268H48.875C49.0408 30.1268 49.1997 30.1927 49.3169 30.3099C49.4342 30.4271 49.5 30.5861 49.5 30.7518C49.5 30.9176 49.4342 31.0766 49.3169 31.1938C49.1997 31.311 49.0408 31.3768 48.875 31.3768ZM40.75 15.6994C40.6679 15.6994 40.5866 15.6833 40.5108 15.6519C40.4349 15.6205 40.366 15.5745 40.308 15.5164C40.2499 15.4584 40.2039 15.3895 40.1725 15.3136C40.1411 15.2378 40.125 15.1565 40.125 15.0744V12.625C40.125 12.4592 40.1908 12.3003 40.3081 12.1831C40.4253 12.0658 40.5842 12 40.75 12C40.9158 12 41.0747 12.0658 41.1919 12.1831C41.3092 12.3003 41.375 12.4592 41.375 12.625V15.0744C41.375 15.1565 41.3589 15.2378 41.3275 15.3136C41.2961 15.3895 41.2501 15.4584 41.192 15.5164C41.134 15.5745 41.0651 15.6205 40.9892 15.6519C40.9134 15.6833 40.8321 15.6994 40.75 15.6994ZM38.25 15.7518C38.1679 15.7519 38.0866 15.7357 38.0108 15.7044C37.9349 15.673 37.866 15.6269 37.808 15.5689C37.7499 15.5108 37.7039 15.4419 37.6725 15.3661C37.6411 15.2902 37.625 15.2089 37.625 15.1268V12.625C37.625 12.4592 37.6908 12.3003 37.8081 12.1831C37.9253 12.0658 38.0842 12 38.25 12C38.4158 12 38.5747 12.0658 38.6919 12.1831C38.8092 12.3003 38.875 12.4592 38.875 12.625V15.1268C38.875 15.2089 38.8589 15.2902 38.8275 15.3661C38.7961 15.4419 38.7501 15.5108 38.692 15.5689C38.634 15.6269 38.5651 15.673 38.4892 15.7044C38.4134 15.7357 38.3321 15.7519 38.25 15.7518Z" fill="#F9A51A"/>
<path d="M48.25 33.25H45.7494C45.6673 33.25 45.586 33.2339 45.5101 33.2025C45.4343 33.1711 45.3654 33.1251 45.3073 33.067C45.2493 33.009 45.2032 32.9401 45.1719 32.8642C45.1405 32.7884 45.1243 32.7071 45.1244 32.625V30.7518C45.1243 30.6697 45.1405 30.5884 45.1719 30.5126C45.2032 30.4367 45.2493 30.3678 45.3073 30.3098C45.3654 30.2517 45.4343 30.2057 45.5101 30.1743C45.586 30.1429 45.6673 30.1268 45.7494 30.1268H48.25C48.3321 30.1268 48.4134 30.1429 48.4892 30.1743C48.5651 30.2057 48.634 30.2517 48.692 30.3098C48.7501 30.3678 48.7961 30.4367 48.8275 30.5126C48.8589 30.5884 48.875 30.6697 48.875 30.7518V32.625C48.875 32.7071 48.8589 32.7884 48.8275 32.8642C48.7961 32.9401 48.7501 33.009 48.692 33.067C48.634 33.1251 48.5651 33.1711 48.4892 33.2025C48.4134 33.2339 48.3321 33.25 48.25 33.25ZM46.3744 32H47.625V31.3768H46.3744V32ZM33.2506 33.25H30.7494C30.6673 33.25 30.586 33.2339 30.5101 33.2025C30.4343 33.1711 30.3654 33.1251 30.3073 33.067C30.2493 33.009 30.2032 32.9401 30.1719 32.8642C30.1405 32.7884 30.1243 32.7071 30.1244 32.625V30.7518C30.1243 30.6697 30.1405 30.5884 30.1719 30.5126C30.2032 30.4367 30.2493 30.3678 30.3073 30.3098C30.3654 30.2517 30.4343 30.2057 30.5101 30.1743C30.586 30.1429 30.6673 30.1268 30.7494 30.1268H33.2506C33.3327 30.1268 33.414 30.1429 33.4899 30.1743C33.5657 30.2057 33.6346 30.2517 33.6927 30.3098C33.7507 30.3678 33.7968 30.4367 33.8281 30.5126C33.8595 30.5884 33.8757 30.6697 33.8756 30.7518V32.625C33.8757 32.7071 33.8595 32.7884 33.8281 32.8642C33.7968 32.9401 33.7507 33.009 33.6927 33.067C33.6346 33.1251 33.5657 33.1711 33.4899 33.2025C33.414 33.2339 33.3327 33.25 33.2506 33.25ZM31.3744 32H32.6256V31.3768H31.3744V32ZM45.1262 36.375H33.875C33.7929 36.375 33.7116 36.3589 33.6358 36.3275C33.5599 36.2961 33.491 36.2501 33.433 36.192C33.3749 36.134 33.3289 36.0651 33.2975 35.9892C33.2661 35.9134 33.25 35.8321 33.25 35.75V33.8768C33.25 33.7947 33.2661 33.7134 33.2975 33.6376C33.3289 33.5617 33.3749 33.4928 33.433 33.4348C33.491 33.3767 33.5599 33.3307 33.6358 33.2993C33.7116 33.2679 33.7929 33.2518 33.875 33.2518H45.1262C45.2083 33.2518 45.2896 33.2679 45.3655 33.2993C45.4413 33.3307 45.5103 33.3767 45.5683 33.4348C45.6263 33.4928 45.6724 33.5617 45.7038 33.6376C45.7352 33.7134 45.7513 33.7947 45.7512 33.8768V35.75C45.7513 35.8321 45.7352 35.9134 45.7038 35.9892C45.6724 36.0651 45.6263 36.134 45.5683 36.192C45.5103 36.2501 45.4413 36.2961 45.3655 36.3275C45.2896 36.3589 45.2083 36.375 45.1262 36.375ZM34.5 35.125H44.5012V34.5018H34.5V35.125ZM26.9988 52H14.5012C14.4192 52 14.3379 51.9839 14.262 51.9525C14.1862 51.9211 14.1172 51.8751 14.0592 51.817C14.0012 51.759 13.9551 51.6901 13.9237 51.6142C13.8923 51.5384 13.8762 51.4571 13.8763 51.375L13.875 25.75C13.875 25.5843 13.9409 25.4253 14.0581 25.3081C14.1753 25.1909 14.3343 25.125 14.5 25.125H27C27.1657 25.125 27.3247 25.1909 27.4419 25.3081C27.5591 25.4253 27.625 25.5843 27.625 25.75L27.6237 51.375C27.6238 51.4571 27.6077 51.5384 27.5763 51.6142C27.5449 51.6901 27.4988 51.759 27.4408 51.817C27.3828 51.8751 27.3138 51.9211 27.238 51.9525C27.1622 51.9839 27.0809 52 26.9988 52ZM15.1262 50.75H26.3738L26.375 26.375H15.125L15.1262 50.75Z" fill="#F9A51A"/>
<path d="M20.7499 52C20.6678 52 20.5865 51.9839 20.5106 51.9525C20.4348 51.9211 20.3659 51.8751 20.3078 51.817C20.2498 51.759 20.2037 51.6901 20.1724 51.6142C20.141 51.5384 20.1248 51.4571 20.1249 51.375V32.625C20.1249 32.4592 20.1907 32.3003 20.3079 32.1831C20.4251 32.0658 20.5841 32 20.7499 32C20.9156 32 21.0746 32.0658 21.1918 32.1831C21.309 32.3003 21.3749 32.4592 21.3749 32.625V51.375C21.3749 51.4571 21.3588 51.5384 21.3274 51.6142C21.296 51.6901 21.25 51.759 21.1919 51.817C21.1339 51.8751 21.065 51.9211 20.9891 51.9525C20.9133 51.9839 20.832 52 20.7499 52ZM26.8748 28.25H14.625C14.4592 28.25 14.3003 28.1842 14.1831 28.0669C14.0658 27.9497 14 27.7908 14 27.625C14 27.4592 14.0658 27.3003 14.1831 27.1831C14.3003 27.0658 14.4592 27 14.625 27H26.8748C27.0405 27 27.1995 27.0658 27.3167 27.1831C27.4339 27.3003 27.4998 27.4592 27.4998 27.625C27.4998 27.7908 27.4339 27.9497 27.3167 28.0669C27.1995 28.1842 27.0405 28.25 26.8748 28.25Z" fill="#F9A51A"/>
<path d="M20.75 30.125C20.6679 30.125 20.5866 30.1089 20.5108 30.0775C20.4349 30.0461 20.366 30.0001 20.308 29.942C20.2499 29.884 20.2039 29.8151 20.1725 29.7392C20.1411 29.6634 20.125 29.5821 20.125 29.5V25.8306C20.125 25.6648 20.1908 25.5058 20.3081 25.3886C20.4253 25.2714 20.5842 25.2056 20.75 25.2056C20.9158 25.2056 21.0747 25.2714 21.1919 25.3886C21.3092 25.5058 21.375 25.6648 21.375 25.8306V29.5C21.375 29.5821 21.3589 29.6634 21.3275 29.7392C21.2961 29.8151 21.2501 29.884 21.192 29.942C21.134 30.0001 21.0651 30.0461 20.9892 30.0775C20.9134 30.1089 20.8321 30.125 20.75 30.125ZM25.75 26.375H23.875C23.7929 26.375 23.7116 26.3589 23.6358 26.3275C23.5599 26.2961 23.491 26.2501 23.433 26.192C23.3749 26.134 23.3289 26.0651 23.2975 25.9892C23.2661 25.9134 23.25 25.8321 23.25 25.75V12.625C23.25 12.5429 23.2661 12.4616 23.2975 12.3858C23.3289 12.3099 23.3749 12.241 23.433 12.183C23.491 12.1249 23.5599 12.0789 23.6358 12.0475C23.7116 12.0161 23.7929 12 23.875 12H25.75C25.8321 12 25.9134 12.0161 25.9892 12.0475C26.0651 12.0789 26.134 12.1249 26.192 12.183C26.2501 12.241 26.2961 12.3099 26.3275 12.3858C26.3589 12.4616 26.375 12.5429 26.375 12.625V25.75C26.375 25.8321 26.3589 25.9134 26.3275 25.9892C26.2961 26.0651 26.2501 26.134 26.192 26.192C26.134 26.2501 26.0651 26.2961 25.9892 26.3275C25.9134 26.3589 25.8321 26.375 25.75 26.375ZM24.5 25.125H25.125V13.25H24.5V25.125ZM17.625 26.375H15.75C15.6679 26.375 15.5866 26.3589 15.5108 26.3275C15.4349 26.2961 15.366 26.2501 15.308 26.192C15.2499 26.134 15.2039 26.0651 15.1725 25.9892C15.1411 25.9134 15.125 25.8321 15.125 25.75V12.625C15.125 12.5429 15.1411 12.4616 15.1725 12.3858C15.2039 12.3099 15.2499 12.241 15.308 12.183C15.366 12.1249 15.4349 12.0789 15.5108 12.0475C15.5866 12.0161 15.6679 12 15.75 12H17.625C17.7071 12 17.7884 12.0161 17.8642 12.0475C17.9401 12.0789 18.009 12.1249 18.067 12.183C18.1251 12.241 18.1711 12.3099 18.2025 12.3858C18.2339 12.4616 18.25 12.5429 18.25 12.625V25.75C18.25 25.8321 18.2339 25.9134 18.2025 25.9892C18.1711 26.0651 18.1251 26.134 18.067 26.192C18.009 26.2501 17.9401 26.2961 17.8642 26.3275C17.7884 26.3589 17.7071 26.375 17.625 26.375ZM16.375 25.125H17V13.25H16.375V25.125Z" fill="#F9A51A"/>
<path d="M17.625 15.75H15.75C15.5842 15.75 15.4253 15.6842 15.3081 15.5669C15.1908 15.4497 15.125 15.2908 15.125 15.125C15.125 14.9592 15.1908 14.8003 15.3081 14.6831C15.4253 14.5658 15.5842 14.5 15.75 14.5H17.625C17.7908 14.5 17.9497 14.5658 18.0669 14.6831C18.1842 14.8003 18.25 14.9592 18.25 15.125C18.25 15.2908 18.1842 15.4497 18.0669 15.5669C17.9497 15.6842 17.7908 15.75 17.625 15.75ZM17.625 17.625H15.75C15.5842 17.625 15.4253 17.5592 15.3081 17.4419C15.1908 17.3247 15.125 17.1658 15.125 17C15.125 16.8342 15.1908 16.6753 15.3081 16.5581C15.4253 16.4408 15.5842 16.375 15.75 16.375H17.625C17.7908 16.375 17.9497 16.4408 18.0669 16.5581C18.1842 16.6753 18.25 16.8342 18.25 17C18.25 17.1658 18.1842 17.3247 18.0669 17.4419C17.9497 17.5592 17.7908 17.625 17.625 17.625ZM25.75 15.75H23.875C23.7092 15.75 23.5503 15.6842 23.4331 15.5669C23.3158 15.4497 23.25 15.2908 23.25 15.125C23.25 14.9592 23.3158 14.8003 23.4331 14.6831C23.5503 14.5658 23.7092 14.5 23.875 14.5H25.75C25.9158 14.5 26.0747 14.5658 26.1919 14.6831C26.3092 14.8003 26.375 14.9592 26.375 15.125C26.375 15.2908 26.3092 15.4497 26.1919 15.5669C26.0747 15.6842 25.9158 15.75 25.75 15.75ZM25.75 17.625H23.875C23.7092 17.625 23.5503 17.5592 23.4331 17.4419C23.3158 17.3247 23.25 17.1658 23.25 17C23.25 16.8342 23.3158 16.6753 23.4331 16.5581C23.5503 16.4408 23.7092 16.375 23.875 16.375H25.75C25.9158 16.375 26.0747 16.4408 26.1919 16.5581C26.3092 16.6753 26.375 16.8342 26.375 17C26.375 17.1658 26.3092 17.3247 26.1919 17.4419C26.0747 17.5592 25.9158 17.625 25.75 17.625ZM30.125 50.125C30.0429 50.125 29.9616 50.1089 29.8858 50.0775C29.8099 50.0461 29.741 50.0001 29.683 49.942C29.6249 49.884 29.5789 49.8151 29.5475 49.7392C29.5161 49.6634 29.5 49.5821 29.5 49.5V40.75C29.5 40.5842 29.5658 40.4253 29.6831 40.3081C29.8003 40.1908 29.9592 40.125 30.125 40.125C30.2908 40.125 30.4497 40.1908 30.5669 40.3081C30.6842 40.4253 30.75 40.5842 30.75 40.75V49.5C30.75 49.5821 30.7339 49.6634 30.7025 49.7392C30.6711 49.8151 30.6251 49.884 30.567 49.942C30.509 50.0001 30.4401 50.0461 30.3642 50.0775C30.2884 50.1089 30.2071 50.125 30.125 50.125Z" fill="#F9A51A"/>
<path d="M40.75 52H30.125C30.0429 52 29.9616 51.9839 29.8858 51.9525C29.8099 51.9211 29.741 51.8751 29.683 51.817C29.6249 51.759 29.5789 51.6901 29.5475 51.6142C29.5161 51.5384 29.5 51.4571 29.5 51.375V49.5C29.5 49.4179 29.5161 49.3366 29.5475 49.2608C29.5789 49.1849 29.6249 49.116 29.683 49.058C29.741 48.9999 29.8099 48.9539 29.8858 48.9225C29.9616 48.8911 30.0429 48.875 30.125 48.875H40.75C40.8321 48.875 40.9134 48.8911 40.9892 48.9225C41.0651 48.9539 41.134 48.9999 41.192 49.058C41.2501 49.116 41.2961 49.1849 41.3275 49.2608C41.3589 49.3366 41.375 49.4179 41.375 49.5V51.375C41.375 51.4571 41.3589 51.5384 41.3275 51.6142C41.2961 51.6901 41.2501 51.759 41.192 51.817C41.134 51.8751 41.0651 51.9211 40.9892 51.9525C40.9134 51.9839 40.8321 52 40.75 52ZM30.75 50.75H40.125V50.125H30.75V50.75ZM40.75 48.25C40.6679 48.25 40.5866 48.2339 40.5108 48.2025C40.4349 48.1711 40.366 48.1251 40.308 48.067C40.2499 48.009 40.2039 47.9401 40.1725 47.8642C40.1411 47.7884 40.125 47.7071 40.125 47.625C40.1246 47.2936 39.9927 46.9759 39.7584 46.7416C39.5241 46.5073 39.2064 46.3754 38.875 46.375C38.7092 46.375 38.5503 46.3092 38.4331 46.1919C38.3158 46.0747 38.25 45.9158 38.25 45.75C38.25 45.5842 38.3158 45.4253 38.4331 45.3081C38.5503 45.1908 38.7092 45.125 38.875 45.125C39.5378 45.1257 40.1733 45.3893 40.642 45.858C41.1107 46.3267 41.3743 46.9622 41.375 47.625C41.375 47.7071 41.3589 47.7884 41.3275 47.8642C41.2961 47.9401 41.2501 48.009 41.192 48.067C41.134 48.1251 41.0651 48.1711 40.9892 48.2025C40.9134 48.2339 40.8321 48.25 40.75 48.25Z" fill="#F9A51A"/>
<path d="M40.75 50.125C40.6679 50.125 40.5866 50.1089 40.5108 50.0775C40.4349 50.0461 40.366 50.0001 40.308 49.942C40.2499 49.884 40.2039 49.8151 40.1725 49.7392C40.1411 49.6634 40.125 49.5821 40.125 49.5V47.625C40.125 47.4592 40.1908 47.3003 40.3081 47.1831C40.4253 47.0658 40.5842 47 40.75 47C40.9158 47 41.0747 47.0658 41.1919 47.1831C41.3092 47.3003 41.375 47.4592 41.375 47.625V49.5C41.375 49.5821 41.3589 49.6634 41.3275 49.7392C41.2961 49.8151 41.2501 49.884 41.192 49.942C41.134 50.0001 41.0651 50.0461 40.9892 50.0775C40.9134 50.1089 40.8321 50.125 40.75 50.125ZM38.875 46.375H36.375C36.2092 46.375 36.0503 46.3092 35.9331 46.1919C35.8158 46.0747 35.75 45.9158 35.75 45.75C35.75 45.5842 35.8158 45.4253 35.9331 45.3081C36.0503 45.1908 36.2092 45.125 36.375 45.125H38.875C39.0408 45.125 39.1997 45.1908 39.3169 45.3081C39.4342 45.4253 39.5 45.5842 39.5 45.75C39.5 45.9158 39.4342 46.0747 39.3169 46.1919C39.1997 46.3092 39.0408 46.375 38.875 46.375Z" fill="#F9A51A"/>
<path d="M36.375 46.375C36.2929 46.375 36.2116 46.3589 36.1358 46.3275C36.0599 46.2961 35.991 46.2501 35.933 46.192C35.8749 46.134 35.8289 46.0651 35.7975 45.9892C35.7661 45.9134 35.75 45.8321 35.75 45.75V40.75C35.75 40.5842 35.8158 40.4253 35.9331 40.3081C36.0503 40.1908 36.2092 40.125 36.375 40.125C36.5408 40.125 36.6997 40.1908 36.8169 40.3081C36.9342 40.4253 37 40.5842 37 40.75V45.75C37 45.8321 36.9839 45.9134 36.9525 45.9892C36.9211 46.0651 36.8751 46.134 36.817 46.192C36.759 46.2501 36.6901 46.2961 36.6142 46.3275C36.5384 46.3589 36.4571 46.375 36.375 46.375Z" fill="#F9A51A"/>
<path d="M36.375 41.375H30.125C29.9592 41.375 29.8003 41.3092 29.6831 41.1919C29.5658 41.0747 29.5 40.9158 29.5 40.75C29.5 40.5842 29.5658 40.4253 29.6831 40.3081C29.8003 40.1908 29.9592 40.125 30.125 40.125H36.375C36.5408 40.125 36.6997 40.1908 36.8169 40.3081C36.9342 40.4253 37 40.5842 37 40.75C37 40.9158 36.9342 41.0747 36.8169 41.1919C36.6997 41.3092 36.5408 41.375 36.375 41.375ZM36.375 45.125H35.75C35.5842 45.125 35.4253 45.0592 35.3081 44.9419C35.1908 44.8247 35.125 44.6658 35.125 44.5C35.125 44.3342 35.1908 44.1753 35.3081 44.0581C35.4253 43.9408 35.5842 43.875 35.75 43.875H36.375C36.5408 43.875 36.6997 43.9408 36.8169 44.0581C36.9342 44.1753 37 44.3342 37 44.5C37 44.6658 36.9342 44.8247 36.8169 44.9419C36.6997 45.0592 36.5408 45.125 36.375 45.125ZM36.375 43.25H35.75C35.5842 43.25 35.4253 43.1842 35.3081 43.0669C35.1908 42.9497 35.125 42.7908 35.125 42.625C35.125 42.4592 35.1908 42.3003 35.3081 42.1831C35.4253 42.0658 35.5842 42 35.75 42H36.375C36.5408 42 36.6997 42.0658 36.8169 42.1831C36.9342 42.3003 37 42.4592 37 42.625C37 42.7908 36.9342 42.9497 36.8169 43.0669C36.6997 43.1842 36.5408 43.25 36.375 43.25ZM33.25 50.125C33.1679 50.125 33.0866 50.1089 33.0108 50.0775C32.9349 50.0461 32.866 50.0001 32.808 49.942C32.7499 49.884 32.7039 49.8151 32.6725 49.7392C32.6411 49.6634 32.625 49.5821 32.625 49.5C32.6243 48.8372 32.3607 48.2017 31.892 47.733C31.4233 47.2643 30.7878 47.0007 30.125 47C29.9592 47 29.8003 46.9342 29.6831 46.8169C29.5658 46.6997 29.5 46.5408 29.5 46.375C29.5 46.2092 29.5658 46.0503 29.6831 45.9331C29.8003 45.8158 29.9592 45.75 30.125 45.75C31.1192 45.7511 32.0724 46.1465 32.7754 46.8496C33.4785 47.5526 33.8739 48.5058 33.875 49.5C33.875 49.5821 33.8589 49.6634 33.8275 49.7392C33.7961 49.8151 33.7501 49.884 33.692 49.942C33.634 50.0001 33.5651 50.0461 33.4892 50.0775C33.4134 50.1089 33.3321 50.125 33.25 50.125ZM49.5 49.5C49.4179 49.5 49.3366 49.4839 49.2608 49.4525C49.1849 49.4211 49.116 49.3751 49.058 49.317C48.9999 49.259 48.9539 49.1901 48.9225 49.1142C48.8911 49.0384 48.875 48.9571 48.875 48.875V40.125C48.875 39.9592 48.9408 39.8003 49.0581 39.6831C49.1753 39.5658 49.3342 39.5 49.5 39.5C49.6658 39.5 49.8247 39.5658 49.9419 39.6831C50.0592 39.8003 50.125 39.9592 50.125 40.125V48.875C50.125 48.9571 50.1089 49.0384 50.0775 49.1142C50.0461 49.1901 50.0001 49.259 49.942 49.317C49.884 49.3751 49.8151 49.4211 49.7392 49.4525C49.6634 49.4839 49.5821 49.5 49.5 49.5Z" fill="#F9A51A"/>
<path d="M49.5 40.75H38.875C38.7929 40.75 38.7116 40.7339 38.6358 40.7025C38.5599 40.6711 38.491 40.6251 38.433 40.567C38.3749 40.509 38.3289 40.4401 38.2975 40.3642C38.2661 40.2884 38.25 40.2071 38.25 40.125V38.25C38.25 38.1679 38.2661 38.0866 38.2975 38.0108C38.3289 37.9349 38.3749 37.866 38.433 37.808C38.491 37.7499 38.5599 37.7039 38.6358 37.6725C38.7116 37.6411 38.7929 37.625 38.875 37.625H49.5C49.5821 37.625 49.6634 37.6411 49.7392 37.6725C49.8151 37.7039 49.884 37.7499 49.942 37.808C50.0001 37.866 50.0461 37.9349 50.0775 38.0108C50.1089 38.0866 50.125 38.1679 50.125 38.25V40.125C50.125 40.2071 50.1089 40.2884 50.0775 40.3642C50.0461 40.4401 50.0001 40.509 49.942 40.567C49.884 40.6251 49.8151 40.6711 49.7392 40.7025C49.6634 40.7339 49.5821 40.75 49.5 40.75ZM39.5 39.5H48.875V38.875H39.5V39.5ZM40.75 44.5C40.0872 44.4993 39.4517 44.2357 38.983 43.767C38.5143 43.2983 38.2507 42.6628 38.25 42C38.25 41.8342 38.3158 41.6753 38.4331 41.5581C38.5503 41.4408 38.7092 41.375 38.875 41.375C39.0408 41.375 39.1997 41.4408 39.3169 41.5581C39.4342 41.6753 39.5 41.8342 39.5 42C39.5004 42.3314 39.6323 42.6491 39.8666 42.8834C40.1009 43.1177 40.4186 43.2496 40.75 43.25C40.9158 43.25 41.0747 43.3158 41.1919 43.4331C41.3092 43.5503 41.375 43.7092 41.375 43.875C41.375 44.0408 41.3092 44.1997 41.1919 44.3169C41.0747 44.4342 40.9158 44.5 40.75 44.5Z" fill="#F9A51A"/>
<path d="M38.875 42.625C38.7929 42.625 38.7116 42.6089 38.6358 42.5775C38.5599 42.5461 38.491 42.5001 38.433 42.442C38.3749 42.384 38.3289 42.3151 38.2975 42.2392C38.2661 42.1634 38.25 42.0821 38.25 42V40.125C38.25 39.9592 38.3158 39.8003 38.4331 39.6831C38.5503 39.5658 38.7092 39.5 38.875 39.5C39.0408 39.5 39.1997 39.5658 39.3169 39.6831C39.4342 39.8003 39.5 39.9592 39.5 40.125V42C39.5 42.0821 39.4839 42.1634 39.4525 42.2392C39.4211 42.3151 39.3751 42.384 39.317 42.442C39.259 42.5001 39.1901 42.5461 39.1142 42.5775C39.0384 42.6089 38.9571 42.625 38.875 42.625ZM43.25 44.5H40.75C40.5842 44.5 40.4253 44.4342 40.3081 44.3169C40.1908 44.1997 40.125 44.0408 40.125 43.875C40.125 43.7092 40.1908 43.5503 40.3081 43.4331C40.4253 43.3158 40.5842 43.25 40.75 43.25H43.25C43.4158 43.25 43.5747 43.3158 43.6919 43.4331C43.8092 43.5503 43.875 43.7092 43.875 43.875C43.875 44.0408 43.8092 44.1997 43.6919 44.3169C43.5747 44.4342 43.4158 44.5 43.25 44.5Z" fill="#F9A51A"/>
<path d="M43.25 49.5C43.1679 49.5 43.0866 49.4839 43.0108 49.4525C42.9349 49.4211 42.866 49.3751 42.808 49.317C42.7499 49.259 42.7039 49.1901 42.6725 49.1142C42.6411 49.0384 42.625 48.9571 42.625 48.875V43.875C42.625 43.7092 42.6908 43.5503 42.8081 43.4331C42.9253 43.3158 43.0842 43.25 43.25 43.25C43.4158 43.25 43.5747 43.3158 43.6919 43.4331C43.8092 43.5503 43.875 43.7092 43.875 43.875V48.875C43.875 48.9571 43.8589 49.0384 43.8275 49.1142C43.7961 49.1901 43.7501 49.259 43.692 49.317C43.634 49.3751 43.5651 49.4211 43.4892 49.4525C43.4134 49.4839 43.3321 49.5 43.25 49.5Z" fill="#F9A51A"/>
<path d="M49.5 49.5H43.25C43.0842 49.5 42.9253 49.4342 42.8081 49.3169C42.6908 49.1997 42.625 49.0408 42.625 48.875C42.625 48.7092 42.6908 48.5503 42.8081 48.4331C42.9253 48.3158 43.0842 48.25 43.25 48.25H49.5C49.6658 48.25 49.8247 48.3158 49.9419 48.4331C50.0592 48.5503 50.125 48.7092 50.125 48.875C50.125 49.0408 50.0592 49.1997 49.9419 49.3169C49.8247 49.4342 49.6658 49.5 49.5 49.5ZM43.875 45.75H43.25C43.0842 45.75 42.9253 45.6842 42.8081 45.5669C42.6908 45.4497 42.625 45.2908 42.625 45.125C42.625 44.9592 42.6908 44.8003 42.8081 44.6831C42.9253 44.5658 43.0842 44.5 43.25 44.5H43.875C44.0408 44.5 44.1997 44.5658 44.3169 44.6831C44.4342 44.8003 44.5 44.9592 44.5 45.125C44.5 45.2908 44.4342 45.4497 44.3169 45.5669C44.1997 45.6842 44.0408 45.75 43.875 45.75ZM43.875 47.625H43.25C43.0842 47.625 42.9253 47.5592 42.8081 47.4419C42.6908 47.3247 42.625 47.1658 42.625 47C42.625 46.8342 42.6908 46.6753 42.8081 46.5581C42.9253 46.4408 43.0842 46.375 43.25 46.375H43.875C44.0408 46.375 44.1997 46.4408 44.3169 46.5581C44.4342 46.6753 44.5 46.8342 44.5 47C44.5 47.1658 44.4342 47.3247 44.3169 47.4419C44.1997 47.5592 44.0408 47.625 43.875 47.625ZM49.5 43.875C48.5058 43.8739 47.5526 43.4785 46.8496 42.7754C46.1465 42.0724 45.7511 41.1192 45.75 40.125C45.75 39.9592 45.8158 39.8003 45.9331 39.6831C46.0503 39.5658 46.2092 39.5 46.375 39.5C46.5408 39.5 46.6997 39.5658 46.8169 39.6831C46.9342 39.8003 47 39.9592 47 40.125C47.0007 40.7878 47.2643 41.4233 47.733 41.892C48.2017 42.3607 48.8372 42.6243 49.5 42.625C49.6658 42.625 49.8247 42.6908 49.9419 42.8081C50.0592 42.9253 50.125 43.0842 50.125 43.25C50.125 43.4158 50.0592 43.5747 49.9419 43.6919C49.8247 43.8092 49.6658 43.875 49.5 43.875Z" fill="#F9A51A"/>
</g>
<defs>
<clipPath id="clip0_627_193">
<rect width="40" height="40" fill="white" transform="translate(12 12)"/>
</clipPath>
</defs>
</svg>
