<svg width="64" height="64" viewBox="0 0 64 64" fill="none" xmlns="http://www.w3.org/2000/svg">
<circle cx="32" cy="32" r="31" stroke="#F9A51A" stroke-width="2"/>
<g clip-path="url(#clip0_628_195)">
<path d="M45.3839 27C44.9771 26.6125 44.4369 26.3964 43.8751 26.3964C43.3134 26.3964 42.7731 26.6125 42.3664 27L37.6751 31.6912C38.6084 29.9126 39.2675 28.0031 39.6301 26.0275L40.1151 23.3619C40.1394 23.2287 40.1198 23.0913 40.0593 22.9703C39.9988 22.8492 39.9006 22.7511 39.7795 22.6906L38.8495 22.2256C37.6505 21.6243 36.5886 20.7819 35.7303 19.751C34.8721 18.7202 34.236 17.5231 33.862 16.235C33.7226 14.1681 30.5558 12.625 26.3751 12.625C22.1945 12.625 19.0276 14.1681 18.8883 16.235C18.5142 17.5231 17.8782 18.7202 17.0199 19.751C16.1617 20.7819 15.0998 21.6243 13.9008 22.2256L12.9708 22.6906C12.8497 22.7511 12.7515 22.8492 12.691 22.9703C12.6305 23.0913 12.6109 23.2287 12.6351 23.3619L13.1208 26.0338C13.6821 29.091 14.9456 31.9761 16.8118 34.4618C18.678 36.9476 21.096 38.966 23.8751 40.3581V43.9644C21.617 44.1294 17.6251 44.6619 17.6251 46.375V48.875C17.6251 51.305 25.4795 51.375 26.3751 51.375C27.2708 51.375 35.1251 51.305 35.1251 48.875V46.375C35.1251 44.6619 31.1333 44.1294 28.8751 43.9644V40.3594C31.8836 38.8483 34.4639 36.6052 36.3789 33.8363C36.3789 33.8494 36.3751 33.8619 36.3751 33.875C36.3743 34.1553 36.4291 34.433 36.5364 34.692C36.6437 34.951 36.8013 35.1861 37.0001 35.3838L41.3751 39.7588V44.0263C39.7176 44.2356 37.0001 44.8162 37.0001 46.375V48.875C37.0001 50.5925 40.5626 51.375 43.8751 51.375C47.1876 51.375 50.7501 50.5925 50.7501 48.875V46.375C50.7501 44.8125 48.0258 44.235 46.3751 44.0263V39.7588L50.7501 35.3838C51.1503 34.9836 51.3751 34.4409 51.3751 33.875C51.3751 33.3091 51.1503 32.7664 50.7501 32.3662L45.3839 27ZM33.2501 27C33.2501 27.1236 33.2135 27.2445 33.1448 27.3472C33.0761 27.45 32.9785 27.5301 32.8643 27.5774C32.7501 27.6247 32.6244 27.6371 32.5032 27.613C32.382 27.5889 32.2706 27.5294 32.1832 27.4419C32.0958 27.3545 32.0363 27.2432 32.0121 27.1219C31.988 27.0007 32.0004 26.875 32.0477 26.7608C32.095 26.6466 32.1751 26.549 32.2779 26.4803C32.3807 26.4117 32.5015 26.375 32.6251 26.375C32.7909 26.375 32.9499 26.4408 33.0671 26.5581C33.1843 26.6753 33.2501 26.8342 33.2501 27ZM33.012 25.1663C32.8849 25.1389 32.7552 25.125 32.6251 25.125C32.1516 25.1263 31.6961 25.3071 31.3506 25.6309C31.0051 25.9547 30.7952 26.3975 30.7633 26.87C30.136 27.2269 29.4746 27.5201 28.7889 27.745C28.5297 27.3363 28.1739 26.9976 27.753 26.7587C27.3321 26.5198 26.8589 26.388 26.3751 26.375C25.8912 26.3882 25.418 26.5201 24.997 26.7592C24.5761 26.9984 24.2205 27.3373 23.9614 27.7463C23.2757 27.5213 22.6142 27.2282 21.987 26.8713C21.9554 26.3986 21.7456 25.9555 21.4001 25.6314C21.0545 25.3073 20.5989 25.1263 20.1251 25.125C19.9951 25.125 19.8654 25.1389 19.7383 25.1663C18.6469 24.0839 17.7987 22.7814 17.2501 21.3456C18.2236 20.3802 19.0079 19.2412 19.5626 17.9875C20.7264 19.2725 23.2695 20.125 26.3751 20.125C29.4808 20.125 32.0239 19.2725 33.1876 17.9875C33.7424 19.2412 34.5267 20.3802 35.5001 21.3456C34.9515 22.7814 34.1033 24.0839 33.012 25.1663ZM28.2501 30.125C28.2501 31.5037 27.4089 32.625 26.3751 32.625C25.3414 32.625 24.5001 31.5037 24.5001 30.125C24.5001 28.7463 25.3414 27.625 26.3751 27.625C27.4089 27.625 28.2501 28.7463 28.2501 30.125ZM20.1251 26.375C20.2487 26.375 20.3696 26.4117 20.4724 26.4803C20.5751 26.549 20.6553 26.6466 20.7026 26.7608C20.7499 26.875 20.7622 27.0007 20.7381 27.1219C20.714 27.2432 20.6545 27.3545 20.5671 27.4419C20.4797 27.5294 20.3683 27.5889 20.2471 27.613C20.1258 27.6371 20.0002 27.6247 19.886 27.5774C19.7718 27.5301 19.6741 27.45 19.6055 27.3472C19.5368 27.2445 19.5001 27.1236 19.5001 27C19.5001 26.8342 19.566 26.6753 19.6832 26.5581C19.8004 26.4408 19.9594 26.375 20.1251 26.375ZM26.3751 13.875C29.9526 13.875 32.6251 15.195 32.6251 16.375C32.6251 17.555 29.9526 18.875 26.3751 18.875C22.7976 18.875 20.1251 17.555 20.1251 16.375C20.1251 15.195 22.7976 13.875 26.3751 13.875ZM26.3751 50.125C21.9133 50.125 19.197 49.3069 18.8751 48.8325V47.7944C21.1289 48.8356 25.7045 48.875 26.3751 48.875C27.0458 48.875 31.6214 48.8356 33.8751 47.7944V48.8325C33.5533 49.3069 30.837 50.125 26.3751 50.125ZM26.3751 47.625C22.0483 47.625 19.3626 46.8556 18.9108 46.375C19.2233 46.0594 20.727 45.45 23.8933 45.2144C23.9089 45.3462 23.9668 45.4694 24.0583 45.5656C24.3136 45.8229 24.6176 46.027 24.9524 46.1659C25.2873 46.3048 25.6464 46.3759 26.0089 46.375H26.7414C27.1038 46.3761 27.4629 46.3052 27.7977 46.1665C28.1325 46.0277 28.4365 45.8239 28.692 45.5669C28.7835 45.4707 28.8414 45.3475 28.857 45.2156C32.0233 45.4513 33.5276 46.0606 33.8395 46.3763C33.3876 46.8556 30.702 47.625 26.3751 47.625ZM27.6251 44.8387C27.3676 45.024 27.0586 45.1241 26.7414 45.125H26.0089C25.6917 45.1241 25.3827 45.024 25.1251 44.8387V40.9306C25.472 41.0756 25.8208 41.2162 26.1776 41.3419C26.3094 41.3864 26.4524 41.3851 26.5833 41.3381C26.9364 41.2131 27.282 41.0744 27.6251 40.9306V44.8387ZM26.3751 40.085C23.303 38.9567 20.5782 37.0468 18.4695 34.5439C16.3609 32.041 14.9412 29.0316 14.3508 25.8125L13.9489 23.6012L14.4601 23.3456C15.0923 23.0269 15.6918 22.6472 16.2501 22.2119C16.8243 23.5609 17.6393 24.7941 18.6551 25.8513C18.5005 26.0463 18.3864 26.2702 18.3195 26.51C18.2526 26.7497 18.2343 27.0004 18.2656 27.2473C18.297 27.4943 18.3774 27.7324 18.502 27.9478C18.6267 28.1633 18.7932 28.3516 18.9917 28.5018C19.1902 28.652 19.4167 28.761 19.6579 28.8224C19.8991 28.8838 20.1502 28.8964 20.3963 28.8594C20.6424 28.8225 20.8787 28.7367 21.0912 28.6071C21.3038 28.4776 21.4883 28.3069 21.6339 28.105C22.2103 28.4143 22.8111 28.676 23.4301 28.8875C23.3114 29.2893 23.2508 29.706 23.2501 30.125C23.2501 32.1931 24.652 33.875 26.3751 33.875C28.0983 33.875 29.5001 32.1931 29.5001 30.125C29.4999 29.7061 29.4397 29.2894 29.3214 28.8875C29.9406 28.6759 30.5415 28.4142 31.1183 28.105C31.2633 28.3083 31.4477 28.4804 31.6604 28.6112C31.8731 28.742 32.1099 28.8288 32.3568 28.8665C32.6037 28.9043 32.8556 28.8921 33.0977 28.8308C33.3397 28.7694 33.5671 28.6602 33.7662 28.5095C33.9653 28.3588 34.1322 28.1697 34.257 27.9534C34.3818 27.7371 34.462 27.4979 34.4928 27.2501C34.5236 27.0023 34.5043 26.7508 34.4363 26.5105C34.3682 26.2703 34.2526 26.0461 34.0964 25.8513C35.1118 24.794 35.9263 23.5608 36.5001 22.2119C37.0582 22.6464 37.6572 23.0255 38.2889 23.3438L38.8001 23.5994L38.3995 25.8038C37.8099 29.0242 36.3907 32.0352 34.282 34.5397C32.1734 37.0441 29.4481 38.9554 26.3751 40.085ZM42.6251 40.9631C42.987 41.2307 43.4251 41.3751 43.8751 41.3751C44.3251 41.3751 44.7633 41.2307 45.1251 40.9631V44.8381C44.8677 45.0236 44.5587 45.1239 44.2414 45.125H43.5089C43.1917 45.1241 42.8827 45.024 42.6251 44.8387V40.9631ZM43.8751 50.125C40.2189 50.125 38.3445 49.2125 38.2501 48.875V47.8925C39.5801 48.5625 41.777 48.875 43.8751 48.875C45.9733 48.875 48.1708 48.5594 49.5001 47.8919V48.8656C49.4058 49.2125 47.5314 50.125 43.8751 50.125ZM49.5001 46.3656C49.4058 46.7125 47.5314 47.625 43.8751 47.625C40.2189 47.625 38.3508 46.715 38.2501 46.3862V46.3825C38.3083 46.1838 39.1989 45.58 41.407 45.2838C41.4315 45.3898 41.4837 45.4875 41.5583 45.5669C41.8138 45.8239 42.1177 46.0277 42.4526 46.1665C42.7874 46.3052 43.1465 46.3761 43.5089 46.375H44.2414C44.6038 46.3761 44.9629 46.3052 45.2977 46.1665C45.6325 46.0277 45.9365 45.8239 46.192 45.5669C46.2668 45.4876 46.3192 45.3899 46.3439 45.2838C48.5576 45.5806 49.447 46.1875 49.5001 46.3656ZM49.8664 34.5L44.5001 39.8662C44.3306 40.0246 44.1072 40.1127 43.8751 40.1127C43.6431 40.1127 43.4197 40.0246 43.2501 39.8662L37.8839 34.5C37.7182 34.3342 37.6252 34.1094 37.6252 33.875C37.6252 33.6406 37.7182 33.4158 37.8839 33.25L43.2501 27.8837C43.416 27.7181 43.6408 27.6251 43.8751 27.6251C44.1095 27.6251 44.3343 27.7181 44.5001 27.8837L49.8664 33.25C50.032 33.4158 50.1251 33.6406 50.1251 33.875C50.1251 34.1094 50.032 34.3342 49.8664 34.5Z" fill="#F9A51A"/>
<path d="M46.3752 32.7731V30.75H45.1252V32.7731C44.7176 33.0089 44.3844 33.3544 44.1635 33.7701C43.9425 34.1859 43.8426 34.6553 43.8752 35.125C43.8752 36.5269 44.6989 37.625 45.7502 37.625C46.8014 37.625 47.6252 36.5269 47.6252 35.125C47.6577 34.6553 47.5578 34.1859 47.3368 33.7701C47.1159 33.3544 46.7827 33.0089 46.3752 32.7731ZM45.7502 36.375C45.4952 36.375 45.1252 35.8881 45.1252 35.125C45.1252 34.3619 45.4952 33.875 45.7502 33.875C46.0052 33.875 46.3752 34.3619 46.3752 35.125C46.3752 35.8881 46.0052 36.375 45.7502 36.375Z" fill="#F9A51A"/>
<path d="M42.6252 32.7731V30.75H41.3752V32.7731C40.9676 33.0089 40.6344 33.3544 40.4135 33.7701C40.1925 34.1859 40.0926 34.6553 40.1252 35.125C40.1252 36.5269 40.9489 37.625 42.0002 37.625C43.0514 37.625 43.8752 36.5269 43.8752 35.125C43.9077 34.6553 43.8078 34.1859 43.5868 33.7701C43.3659 33.3544 43.0327 33.0089 42.6252 32.7731ZM42.0002 36.375C41.7452 36.375 41.3752 35.8881 41.3752 35.125C41.3752 34.3619 41.7452 33.875 42.0002 33.875C42.2552 33.875 42.6252 34.3619 42.6252 35.125C42.6252 35.8881 42.2552 36.375 42.0002 36.375Z" fill="#F9A51A"/>
</g>
<defs>
<clipPath id="clip0_628_195">
<rect width="40" height="40" fill="white" transform="translate(12 12)"/>
</clipPath>
</defs>
</svg>
