<svg width="64" height="64" viewBox="0 0 64 64" fill="none" xmlns="http://www.w3.org/2000/svg">
<circle cx="32" cy="32" r="31" stroke="#F9A51A" stroke-width="2"/>
<g clip-path="url(#clip0_627_104)">
<path d="M35.7501 30.75C35.7497 31.7449 35.3542 32.6989 34.6505 33.4022C33.9467 34.1054 32.9925 34.5003 31.9976 34.5C31.0027 34.4997 30.0487 34.1041 29.3454 33.4004C28.6421 32.6967 28.2472 31.7424 28.2476 30.7475C28.2479 29.7526 28.6434 28.7986 29.3472 28.0953C30.0509 27.3921 31.0052 26.9972 32.0001 26.9975C32.995 26.9978 33.949 27.3934 34.6522 28.0971C35.3555 28.8008 35.7504 29.7551 35.7501 30.75ZM47.6751 22H41.3251C40.178 22 39.0779 22.4557 38.2668 23.2668C37.4557 24.0779 37.0001 25.1779 37.0001 26.325V34.5C37.0001 35.163 37.2635 35.7989 37.7323 36.2678C38.2011 36.7366 38.837 37 39.5001 37V52H49.5001V37C50.1631 37 50.799 36.7366 51.2678 36.2678C51.7367 35.7989 52.0001 35.163 52.0001 34.5V26.325C52.0001 25.1779 51.5444 24.0779 50.7333 23.2668C49.9222 22.4557 48.8221 22 47.6751 22Z" fill="#F9A51A"/>
<path d="M49.5 17C49.5151 17.6658 49.3969 18.328 49.1526 18.9476C48.9082 19.5671 48.5425 20.1316 48.077 20.6079C47.6115 21.0842 47.0555 21.4627 46.4416 21.7212C45.8278 21.9796 45.1685 22.1129 44.5025 22.113C43.8365 22.1132 43.1772 21.9803 42.5632 21.7222C41.9493 21.464 41.3931 21.0858 40.9273 20.6097C40.4615 20.1337 40.0956 19.5693 39.8509 18.9499C39.6062 18.3304 39.4878 17.6684 39.5025 17.0025C39.5314 15.6961 40.0706 14.4529 41.0046 13.5391C41.9386 12.6252 43.1933 12.1134 44.5 12.113C45.8068 12.1127 47.0617 12.624 47.9962 13.5373C48.9307 14.4507 49.4705 15.6936 49.5 17ZM22.675 24.5H16.325C15.7569 24.5002 15.1943 24.6122 14.6695 24.8298C14.1447 25.0474 13.6679 25.3662 13.2662 25.768C12.8646 26.1699 12.5461 26.6469 12.3288 27.1718C12.1116 27.6968 11.9998 28.2594 12 28.8275C12.0002 29.3956 12.1122 29.9582 12.3298 30.483C12.5474 31.0078 12.8662 31.4846 13.268 31.8863C13.6699 32.2879 14.1469 32.6064 14.6718 32.8237C15.1968 33.0409 15.7594 33.1527 16.3275 33.1525C17.4749 33.1522 18.5752 32.6961 19.3863 31.8845C20.1973 31.0729 20.6528 29.9724 20.6525 28.825C20.6522 27.6776 20.1961 26.5773 19.3845 25.7662C18.5729 24.9552 17.4724 24.4997 16.325 24.5C15.1779 24.5 14.0773 24.9569 13.2662 25.768C12.4552 26.5791 12 27.6804 12 28.8275L12 34.5C12 35.163 12.2634 35.7989 12.7322 36.2678C13.2011 36.7366 13.837 37 14.5 37L12 44.5H14.5V52H24.5V44.5H27L24.5 37C25.163 37 25.7989 36.7366 26.2678 36.2678C26.7366 35.7989 27 35.163 27 34.5V28.825C27 28.257 26.8881 27.6946 26.6708 27.1699C26.4534 26.6452 26.1349 26.1684 25.7332 25.7668C25.3316 25.3651 24.8548 25.0466 24.3301 24.8292C23.8054 24.6119 23.243 24.5 22.675 24.5Z" fill="#F9A51A"/>
<path d="M24.5002 19.5C24.5152 20.1658 24.3971 20.828 24.1528 21.4476C23.9084 22.0671 23.5427 22.6316 23.0772 23.1079C22.6116 23.5842 22.0556 23.9627 21.4418 24.2212C20.828 24.4796 20.1687 24.6129 19.5027 24.613C18.8367 24.6132 18.1774 24.4803 17.5634 24.2222C16.9495 23.964 16.3933 23.5858 15.9275 23.1097C15.4617 22.6337 15.0958 22.0693 14.8511 21.4499C14.6064 20.8304 14.488 20.1684 14.5027 19.5025C14.5316 18.1961 15.0707 16.9529 16.0048 16.0391C16.9388 15.1252 18.1935 14.6134 19.5002 14.613C20.8069 14.6127 22.0619 15.124 22.9964 16.0373C23.9309 16.9507 24.4706 18.1936 24.5002 19.5ZM29.5002 44.5V52H34.5002V44.5C35.1632 44.5 35.7991 44.2366 36.268 43.7678C36.7368 43.2989 37.0002 42.663 37.0002 42V38.15C37.0002 37.182 36.6156 36.2536 35.9311 35.5691C35.2466 34.8846 34.3182 34.5 33.3502 34.5H30.6502C29.6821 34.5 28.7538 34.8846 28.0692 35.5691C27.3847 36.2536 27.0002 37.182 27.0002 38.15V42C27.0002 42.663 27.2636 43.2989 27.7324 43.7678C28.2013 44.2366 28.8371 44.5 29.5002 44.5Z" fill="#F9A51A"/>
</g>
<defs>
<clipPath id="clip0_627_104">
<rect width="40" height="40" fill="white" transform="translate(12 12)"/>
</clipPath>
</defs>
</svg>
