<svg width="64" height="64" viewBox="0 0 64 64" fill="none" xmlns="http://www.w3.org/2000/svg">
<circle cx="32" cy="32" r="31" stroke="#F9A51A" stroke-width="2"/>
<path d="M32.993 10.9991C32.8231 11.0023 32.6613 11.0725 32.543 11.1945C32.4247 11.3165 32.3594 11.4803 32.3613 11.6502V18.4629L31.4429 19.4469C31.1928 18.8987 30.7787 18.4416 30.2578 18.1387C29.7369 17.8358 29.1348 17.7021 28.5346 17.7559C27.7972 17.829 27.1152 18.1801 26.6274 18.7379C26.1395 19.2957 25.8824 20.0183 25.9082 20.7589C25.9519 21.9495 26.7197 22.9529 27.779 23.3587L25.5146 25.7761L21.2287 22.0928C21.1057 21.9867 20.947 21.9311 20.7847 21.9374C20.6223 21.9438 20.4684 22.0114 20.354 22.1268L15.2105 27.2631C14.5788 27.8681 15.5094 28.8035 16.1168 28.1742L18.3617 25.9316L19.2267 26.3665C19.3164 26.4118 19.4154 26.4354 19.5158 26.4354C19.6163 26.4354 19.7153 26.4118 19.8049 26.3665L20.6748 25.9292L21.632 26.8865C21.6916 26.9463 21.7624 26.9937 21.8404 27.0261C21.9184 27.0585 22.002 27.0751 22.0864 27.0751C22.1708 27.0751 22.2544 27.0585 22.3324 27.0261C22.4103 26.9937 22.4811 26.9463 22.5407 26.8865L23.6 25.8247L24.6351 26.7116L22.9027 28.5629C22.3148 29.1874 23.2477 30.0693 23.8357 29.4473C25.9884 27.178 28.1143 24.882 30.2232 22.6298L31.268 23.6745C31.4623 23.8689 31.7612 23.9175 32.0066 23.796L32.8788 23.3587L33.8312 24.3159C34.0499 24.5346 34.3901 24.5662 34.6427 24.3961L36.5719 23.1108L36.7079 23.0185L40.5905 26.6047L39.0234 27.8608C38.2823 28.3856 39.1521 29.4716 39.8252 28.8618L42.5901 26.6508L43.4672 27.5303C43.6615 27.7247 43.9604 27.7733 44.2058 27.6518L45.0805 27.2145L46.0377 28.1742C46.2321 28.3686 46.5309 28.4172 46.7788 28.2932L48.9314 27.2169L49.8887 28.1742C50.4961 28.7816 51.4072 27.8705 50.7998 27.2631L46.305 22.7634C46.1932 22.65 46.0433 22.5822 45.8843 22.5732C45.7254 22.5642 45.5687 22.6147 45.4449 22.7148L41.6061 25.7932L33.6466 18.4386V16.1499H37.4976C37.6679 16.1499 37.8313 16.0824 37.952 15.9622C38.0727 15.842 38.1408 15.6788 38.1414 15.5085V12.2965C38.1417 12.2118 38.1253 12.1278 38.0931 12.0494C38.0609 11.971 38.0135 11.8997 37.9537 11.8397C37.8939 11.7796 37.8228 11.732 37.7445 11.6995C37.6662 11.667 37.5823 11.6502 37.4976 11.6502H33.6466C33.6476 11.5643 33.6313 11.4789 33.5988 11.3993C33.5663 11.3197 33.5181 11.2474 33.4572 11.1868C33.3963 11.1261 33.3238 11.0782 33.2441 11.046C33.1644 11.0137 33.079 10.9978 32.993 10.9991ZM33.6466 12.9379H36.8561V14.8622H33.6466V12.9379ZM28.6585 19.0363C29.0703 18.9956 29.4819 19.1146 29.8084 19.3687C30.1348 19.6228 30.3512 19.9927 30.4127 20.4018L30.4322 20.5233L28.7946 22.2726H28.78C28.3653 22.2659 27.9692 22.0995 27.6741 21.808C27.379 21.5166 27.2077 21.1225 27.1959 20.7079C27.178 20.294 27.3202 19.8892 27.5931 19.5774C27.8659 19.2657 28.2484 19.071 28.661 19.0339L28.6585 19.0363ZM33.0368 19.6292L35.7361 22.122L34.3682 23.0355L33.4571 22.1244C33.3625 22.029 33.2403 21.9657 33.1077 21.9435C32.9752 21.9212 32.839 21.9412 32.7185 22.0005L31.8438 22.4378L31.1003 21.6919L33.0368 19.6292ZM20.84 23.4534L22.6258 24.9865L22.0864 25.5259L21.2579 24.695C21.1624 24.5984 21.0388 24.5345 20.9047 24.5127C20.7707 24.4909 20.6332 24.5122 20.512 24.5735L19.5158 25.0716L19.319 24.9744L20.84 23.4534ZM45.7996 24.0851L47.9742 26.2596L46.6136 26.9351L45.6587 25.9778C45.5636 25.8823 45.4408 25.8191 45.3078 25.7973C45.1748 25.7755 45.0383 25.7961 44.9177 25.8563L44.0503 26.2937L43.6008 25.8442L45.7996 24.0851ZM34.9319 25.47C34.3147 25.47 33.7462 25.5866 33.2797 25.8199C32.8181 26.0531 32.3613 26.4637 32.3613 27.0784C32.3613 27.6931 32.8157 28.0989 33.2821 28.3297C33.7462 28.5629 34.3147 28.682 34.9343 28.682C35.5514 28.682 36.1127 28.5629 36.5767 28.3297C37.0432 28.0964 37.4976 27.6931 37.4976 27.0784C37.4976 26.4637 37.0432 26.0531 36.5767 25.8199C36.0629 25.5775 35.4998 25.4577 34.9319 25.47ZM34.9319 26.7577C35.3789 26.7577 35.7725 26.8549 36.0033 26.9691C36.1005 27.0177 36.1345 27.0493 36.1637 27.076C36.1345 27.1003 36.1005 27.1343 36.0033 27.1829C35.6666 27.3304 35.3019 27.4034 34.9343 27.3967C34.5635 27.4039 34.1955 27.331 33.8555 27.1829C33.7584 27.1343 33.7243 27.1003 33.6952 27.076C33.7243 27.0517 33.7584 27.0177 33.8555 26.9691C34.1948 26.8213 34.5619 26.7508 34.9319 26.7577ZM32.3443 28.6091L31.3579 29.4352L32.1767 30.424L33.1631 29.598L32.3443 28.6091ZM30.3666 30.2564L29.3801 31.0825L30.2062 32.0713L31.1902 31.2453L30.3666 30.2564ZM27.8665 32.2171C27.297 32.2049 26.7323 32.3247 26.2168 32.567C25.7503 32.8002 25.2959 33.2133 25.2959 33.8255C25.2959 34.4402 25.7503 34.846 26.2168 35.0792C26.6833 35.3125 27.2469 35.4315 27.8665 35.4315C28.486 35.4315 29.0521 35.31 29.5186 35.0792C29.9827 34.846 30.437 34.4402 30.437 33.8255C30.437 33.2133 29.9827 32.8002 29.5186 32.567C29.0023 32.3245 28.4368 32.2047 27.8665 32.2171ZM43.924 32.8585C43.3044 32.8585 42.7383 32.9752 42.2718 33.2084C41.8077 33.4417 41.3534 33.8523 41.3534 34.467C41.3534 35.0792 41.8077 35.4923 42.2718 35.7231C42.7383 35.9563 43.3044 36.0754 43.924 36.0754C44.5411 36.0754 45.1072 35.9563 45.5737 35.7231C46.0377 35.4923 46.4921 35.0792 46.4921 34.467C46.4921 33.8523 46.0377 33.4417 45.5737 33.2084C45.0574 32.9657 44.4919 32.846 43.9215 32.8585H43.924ZM31.5231 33.3858L31.5085 34.671L32.7938 34.6856L32.8084 33.3979L31.5231 33.3858ZM34.0936 33.4174L34.0791 34.7051L35.3595 34.7196L35.3789 33.4319L34.0936 33.4174ZM36.6618 33.4514L36.6448 34.7391L37.9276 34.7512L37.947 33.4635L36.6618 33.4514ZM39.2348 33.4854L39.2153 34.7707L40.4982 34.7852L40.5176 33.4975L39.2348 33.4854ZM27.8665 33.5024C28.3111 33.5024 28.7071 33.5996 28.938 33.7162C29.0351 33.7648 29.0716 33.7988 29.1007 33.8255C29.0716 33.8498 29.0351 33.8814 28.938 33.93C28.6005 34.0779 28.2349 34.1508 27.8665 34.1438C27.4965 34.1507 27.1294 34.0778 26.7902 33.93C26.693 33.8814 26.6565 33.8498 26.6298 33.8255C26.6565 33.8012 26.693 33.7648 26.7902 33.7162C27.1294 33.5684 27.4965 33.4955 27.8665 33.5024ZM43.924 34.1438C44.3686 34.1438 44.7622 34.2459 44.993 34.3625C45.0902 34.4111 45.1266 34.4451 45.1558 34.4694C45.1266 34.4937 45.0926 34.5277 44.9954 34.5763C44.6577 34.7233 44.2922 34.7955 43.924 34.7877C43.5542 34.7953 43.1871 34.7232 42.8476 34.5763C42.7504 34.5277 42.714 34.4937 42.6873 34.4694C42.714 34.4451 42.7504 34.4111 42.8476 34.3625C43.0784 34.2459 43.4793 34.1438 43.924 34.1438ZM40.8966 34.931L39.7304 35.4728L40.2722 36.6391L41.4384 36.0972L40.8966 34.931ZM38.5642 36.0098L37.3979 36.5492L37.9398 37.7154L39.106 37.176L38.5642 36.0098ZM36.2317 37.0861L35.0655 37.6255L35.6049 38.7941L36.7711 38.2523L36.2317 37.0861ZM33.8993 38.1649L32.733 38.7042L33.2724 39.8705L34.4387 39.3311L33.8993 38.1649ZM29.7932 39.2874C29.1736 39.2874 28.6075 39.4064 28.141 39.6397C27.677 39.8729 27.2226 40.2786 27.2226 40.8909C27.2226 41.5056 27.677 41.9162 28.141 42.1495C28.6075 42.3827 29.1736 42.4993 29.7932 42.4993C30.4103 42.4993 30.9764 42.3827 31.4429 42.1495C31.907 41.9162 32.3613 41.5056 32.3613 40.8909C32.3613 40.2786 31.907 39.8705 31.4429 39.6397C30.9268 39.3961 30.3637 39.2756 29.7932 39.2874ZM29.7932 40.5751C30.2378 40.5751 30.6363 40.6722 30.8695 40.7889C30.9667 40.8375 31.0007 40.8691 31.0274 40.8933C31.0007 40.9176 30.9667 40.9541 30.8695 41.0002C30.5303 41.148 30.1632 41.2209 29.7932 41.2141C29.4232 41.2209 29.0561 41.148 28.7169 41.0002C28.6197 40.9517 28.5832 40.9201 28.5565 40.8933C28.5832 40.8691 28.6197 40.8375 28.7169 40.7889C29.0561 40.6411 29.4232 40.5682 29.7932 40.5751ZM26.5132 41.4983L25.3227 41.9721L25.794 43.1699L26.9894 42.6961L26.5132 41.4983ZM24.1321 42.4459L22.9368 42.927L23.4081 44.1175L24.6035 43.6437L24.1321 42.4459ZM21.7414 43.4007L20.546 43.8769L21.0246 45.0723L22.2151 44.5985L21.7414 43.4007ZM17.5916 43.787C17.0212 43.7745 16.4557 43.8942 15.9394 44.1369C15.4778 44.3702 15.021 44.7759 15.021 45.3906C15.021 46.0053 15.4753 46.4135 15.9418 46.6467C16.4059 46.88 16.972 46.999 17.5916 46.999C18.2111 46.999 18.7748 46.88 19.2413 46.6467C19.7053 46.4135 20.1572 46.0053 20.1572 45.3906C20.1572 44.7759 19.7053 44.3702 19.2413 44.1369C18.725 43.8942 18.1619 43.7745 17.5916 43.787ZM17.5916 45.0747C18.0362 45.0747 18.4298 45.1719 18.6606 45.2861C18.7578 45.3347 18.7942 45.3663 18.8234 45.393C18.7942 45.4173 18.7602 45.4513 18.663 45.4999C18.3255 45.6478 17.96 45.7208 17.5916 45.7137C17.2216 45.7206 16.8545 45.6477 16.5152 45.4999C16.418 45.4513 16.384 45.4173 16.3549 45.393C16.384 45.3687 16.418 45.3347 16.5152 45.2861C16.8545 45.1384 17.2216 45.0654 17.5916 45.0723V45.0747Z" fill="#F9A51A"/>
</svg>
