<svg width="64" height="64" viewBox="0 0 64 64" fill="none" xmlns="http://www.w3.org/2000/svg">
<circle cx="32" cy="32" r="31" stroke="#F9A51A" stroke-width="2"/>
<path fill-rule="evenodd" clip-rule="evenodd" d="M35.75 17V28.1938H30.75V23.1937H28.25V21.9437H23.25V23.1937H20.75V26.9438H17.125V19.4437H12V49.4437H13.25V37.5688H14.4375V40.0688H18.25V49.5H19.5V34.4438H22.515V31.9438H25.3588V34.4438H28.25V33.1938H26.6088V30.6938H21.265V33.1938H18.25V38.8188H15.6875V36.3188H13.25V20.6937H15.875V28.1938H22V24.4437H24.5V23.1937H27V24.4437H29.5V29.4438H37V18.25H42V30.6938H47V21.9437H50.75V35.6938H47.625V33.1938H42V34.4438H46.375V36.9438H50.75V49.4437H52V20.6937H45.75V29.4438H43.25V17H35.75ZM33.2788 30.6912C33.2579 30.691 33.237 30.6919 33.2162 30.6938C33.0709 30.7007 32.9325 30.7582 32.825 30.8562L24.7025 38.3562C24.609 38.4412 24.5435 38.5525 24.5145 38.6755C24.4856 38.7985 24.4945 38.9273 24.5403 39.0451C24.586 39.1628 24.6664 39.264 24.7708 39.3351C24.8752 39.4063 24.9987 39.4442 25.125 39.4438H25.75V48.8162C25.75 48.982 25.8158 49.141 25.9331 49.2582C26.0503 49.3754 26.2092 49.4412 26.375 49.4412H40.125C40.2908 49.4412 40.4497 49.3754 40.5669 49.2582C40.6842 49.141 40.75 48.982 40.75 48.8162V39.4438H41.375C41.5015 39.4447 41.6254 39.4072 41.7302 39.3362C41.8349 39.2652 41.9157 39.1641 41.9618 39.0463C42.0078 38.9284 42.017 38.7993 41.9881 38.6761C41.9593 38.5529 41.8937 38.4414 41.8 38.3562L40.75 37.3888V33.8263C40.751 33.7427 40.7353 33.6598 40.7037 33.5824C40.6721 33.5051 40.6253 33.4348 40.5661 33.3759C40.5069 33.3169 40.4365 33.2704 40.359 33.2391C40.2815 33.2078 40.1985 33.1924 40.115 33.1938C39.9497 33.1964 39.7921 33.2644 39.6769 33.383C39.5616 33.5015 39.498 33.6609 39.5 33.8263V36.2337L33.675 30.8575C33.5667 30.757 33.4263 30.6981 33.2788 30.6912ZM33.25 32.1712L39.775 38.1938H26.725L33.25 32.1712ZM27 39.7125H39.5V48.1912H35.75V43.8162C35.75 43.6505 35.6842 43.4915 35.5669 43.3743C35.4497 43.2571 35.2908 43.1912 35.125 43.1912H31.375C31.2092 43.1912 31.0503 43.2571 30.9331 43.3743C30.8158 43.4915 30.75 43.6505 30.75 43.8162V48.1912H27V39.7125ZM32 44.4412H34.5V48.1912H32V44.4412Z" fill="#F9A51A"/>
</svg>
